# xmcd
#
# Track frame offsets:
#	150
#	13356
#	30381
#	39350
#	57995
#	68578
#	78106
#	91233
#	102585
#	109878
#	123277
#	134741
#	148191
#	162258
#	174635
#	190307
#	202572
#	217260
#	233824
#	245077
#
# Disc length: 3463 seconds
#
# Revision: 3
# Processed by: cddbd v1.5.2PL0 Copyright (c) Steve Scherf et al.
# Submitted via: VUPlayer 2.49
#
DISCID=1e0d8514
DTITLE=Various Artist - That's Country CD-2
DYEAR=2002
DGENRE=Country
TTITLE0=Faron Young - Chapel in the Moonlight
TTITLE1=Tanya Tucker - The Night That Drove Old Dixie Away
TTITLE2=Willie Nelson - Waiting Time
TTITLE3=Jeff Turner - One Good Reason
TTITLE4=Patsy Cline - I Can See An Angel
TTITLE5=Porter Wagoner - Louisiana Saturday Night
TTITLE6=Terry Gibbs - Fade Away
TTITLE7=Tennessee - Cottonfields
TTITLE8=Jim Reeves - The Oklahoma Hills
TTITLE9=Merle Haggard - Fiddle Breakdown
TTITLE10=Terry Gibbs - I Just Stopped To Tell You Hello
TTITLE11=Hoyt Axton - Joy To the World
TTITLE12=Ferlin Husky - Hello I'm A Truck
TTITLE13=Kitty Wells - As Long As I Live
TTITLE14=Kenny Rogers - Good Lady of Toronto
TTITLE15=Willie Nelson - I Can't Find the Time
TTITLE16=Mel Tills - Detroit City
TTITLE17=Gail Davies - Someone Is Looking for Someone Like You
TTITLE18=Porter Wagoner - Angel Band
TTITLE19=Johnny Lee - Country Party
EXTD=CD 2 of 5
EXTT0=
EXTT1=
EXTT2=
EXTT3=
EXTT4=
EXTT5=
EXTT6=
EXTT7=
EXTT8=
EXTT9=
EXTT10=
EXTT11=
EXTT12=
EXTT13=
EXTT14=
EXTT15=
EXTT16=
EXTT17=
EXTT18=
EXTT19=
PLAYORDER=
